<svg version="1" xmlns="http://www.w3.org/2000/svg" width="905.333" height="905.333" viewBox="0 0 679.000000 679.000000"><path d="M275.2 157.2l.3 52.3h38l.3-22.3.2-22.2h62v-21h-62v-19h67v-20H275l.2 52.2zM383 157.5V210h36l.2-34.3.3-34.2 13 21.7 13 21.7 13.6.1h13.6l12.9-21.6 12.9-21.6.3 34.1.2 34.1 19.3-.2 19.2-.3.3-52.3.2-52.2h-45.5l-15.9 25.5c-8.8 14-16.2 25.5-16.5 25.4-.3 0-7.7-11.3-16.3-25.2l-15.6-25.2-22.6-.3-22.6-.2v52.5zM574.1 135.2l-34.2 30.2.3 10.1.3 10 35.3.3 35.2.2v24h37v-24h20v-20h-20v-61h-39.8l-34.1 30.2zM611 148v18h-20.1c-13.2 0-19.8-.3-19.4-1 .7-1.1 38.6-35 39.1-35 .2 0 .4 8.1.4 18zM0 459.5V679h679V240H0v219.5zm633.8-165.8l.3 11.3h33l-.3 8.7-.3 8.8-16.2.3-16.3.2v38l2.9 3.2c2.9 3.2 3.1 3.3 11.3 3.3 4.6 0 10.7-.4 13.6-.9l5.2-.9v18.1l-6.7.9c-10.1 1.2-35 .9-41.3-.5-8.2-1.9-14.1-5.3-17.5-10.1l-3-4.3-.3-23.4-.3-23.4h-3.5c-3.1 0-3.4.2-3.4 3 0 1.6-.5 3-1.1 3-.6 0-5.7-1.6-11.3-3.5-12.3-4.2-23.5-5.9-33.6-5.2-12.6 1-17.6 3.9-14.5 8.4 1.8 2.6 6.7 3.8 25.9 6.3 22.8 3 33.1 7.3 37.8 16 2.6 4.8 2.1 13.5-1.2 18.3-5.1 7.4-18 13.6-33.1 15.8-13 1.9-37.3 1.4-51-1-18.1-3.1-16.9-2.1-16.9-14.6 0-12.2 0-12.2 9.5-7.9 11 4.8 21.7 6.8 37 6.9 11.6 0 14.6-.3 17.3-1.8 3.8-2.1 4.2-5 .8-7.2-1.4-.9-9.5-2.6-19.7-4.1-26.8-3.7-36.4-7.5-41.6-16-3.3-5.5-3.2-14.5.1-19.5 5.1-7.5 19-13.8 35.1-16 9.7-1.3 39.2-.7 45.6.9 2 .5 7.6.6 12.5.3l8.9-.6.3-11.3.3-11.2 17.7.2 17.7.3.3 11.2zm-257.7 11.6c3.1.8 7.3 2 9.3 2.7l3.6 1.2V331h-2.7c-1.5 0-6-1.6-9.9-3.5-16.3-8.1-34.5-8.3-45.1-.6-11.8 8.5-11.4 28.9.8 36.3 9.7 6 28.7 6.1 41.7.3 4.7-2.1 6.2-3.3 6.2-4.9.1-3.6 3.6-10.1 7.1-13 9-7.6 23.1-10.8 58.2-13.1 8.5-.6 9.7-.9 9.7-2.5 0-3-5.5-6.8-11.6-8-9.9-2.1-25.5-1.5-38.3 1.4-16.4 3.7-15.1 4.4-15.1-7.3v-9.9l10.3-1.3c13-1.8 56.1-1.9 63.3-.2 14.8 3.5 23.7 9.6 26.2 17.9.8 2.9 1.2 13 1.2 32.8V384h-36v-3.5c0-1.9-.2-3.5-.5-3.5s-3.2 1.4-6.5 3c-8.5 4.3-16.8 6-29.5 6-11.5 0-18.3-1.3-25-4.7-3.4-1.8-4.3-1.9-6-.7-1.1.7-6.7 2.3-12.5 3.4-9.2 1.9-12.7 2.1-28.5 1.7-20.7-.6-28.1-2-38.8-7.2-14.1-6.9-21.6-17.2-22.5-31-1.4-22.1 13.9-37.6 42.5-43 9.8-1.8 40-1.3 48.4.8zm31.5 160.2c2.8 1.4 5.9 4 7.4 6.2l2.5 3.7.3 76.6.2 76.6-2.9 4.6c-1.9 2.9-4.6 5.6-7.3 7-4.3 2.3-4.6 2.3-41.3 2.3h-37l-.3-9.7-.3-9.8 34.8-.2 34.8-.3.3-69.8.2-69.7H219v30.1l-9.7-.3-9.8-.3V495c0-16.8.1-17.7 2.5-22 1.8-3.2 4-5.3 7.5-7.2l5-2.8h188.1l5 2.5zm-181.3 70.9c11 2.8 25.3 9.2 34.8 15.6 8.3 5.6 23.3 20.7 28.7 29 10.7 16.3 16.8 34.3 18.6 54.7l.6 6.3h-19.8l-.7-6.8c-3.6-37.3-28-67.6-63.4-78.6-4.7-1.5-12.1-2.9-17.2-3.3l-8.9-.6v-20l8.8.6c4.8.3 13.1 1.7 18.5 3.1zM215.6 575c27.6 7 47.8 29.1 52.4 57.2 1.7 10.6 2.4 9.8-8.9 9.8h-9.9l-.7-5.6c-1.9-15.7-10.7-29.2-24-37-5.9-3.4-14.7-6.4-19.1-6.4-6.2 0-6.4-.3-6.4-10.6V573h4.3c2.4 0 7.9.9 12.3 2zm-2.7 41c8.3 4.2 14.2 12.4 15.7 21.8l.7 4.2H199V612.7l4.9.6c2.7.3 6.8 1.5 9 2.7z"/><path d="M445 348.1c-14.8 1.3-21.8 2.8-25.1 5.7-2.6 2.1-3 3.1-2.7 6.5.3 3.5.8 4.4 3.8 6.2 5.1 3 20.2 2.8 28.3-.4l5.7-2.2v-8.5c0-4.6-.1-8.3-.2-8.3-.2.1-4.6.5-9.8 1z"/></svg>